<?xml version="1.0" encoding="UTF-8"?><svg id="a" xmlns="http://www.w3.org/2000/svg" xmlns:xlink="http://www.w3.org/1999/xlink" viewBox="0 0 3000 3000"><defs><style>.d{fill:#000;}.d,.e,.f{stroke-width:0px;}.e{fill:#c80000;}.f,.g{fill:none;}.h{clip-path:url(#b);}.i{clip-path:url(#c);}.g{stroke:#c80000;stroke-miterlimit:10;stroke-width:25px;}</style><clipPath id="b"><polygon class="f" points="2506.25 1933.47505 1506.25 2510.82532 1000 2512.5 500 2512.5 500 1500 2500 1500 2506.25 1933.47505"/></clipPath><clipPath id="c"><rect class="f" x="1761.88718" y="997.03826" width="100" height="1500" transform="translate(806.48486 -560.39408) rotate(22.50001)"/></clipPath></defs><g class="h"><line class="g" x1="512.5" y1="2500" x2="650" y2="2500"/><line class="g" x1="2350" y1="2500" x2="2487.5" y2="2500"/><path class="e" d="M1500,1525c66.16895,0,132.28857,6.66467,196.52295,19.80908,62.58887,12.8075,124.15381,31.91809,182.9834,56.8009,57.76758,24.43372,113.48584,54.67688,165.60791,89.89001,51.6333,34.88281,100.18799,74.94409,144.31494,119.07092s84.18799,92.68152,119.0708,144.3147c35.21289,52.12219,65.45605,107.8407,89.89014,165.60803,24.88281,58.82983,43.99316,120.39453,56.80078,182.98315,13.14453,64.23438,19.80908,130.35449,19.80908,196.52319s-6.66455,132.28882-19.80908,196.52319c-12.80762,62.58862-31.91797,124.15332-56.80078,182.98315-24.43408,57.76733-54.67725,113.48584-89.89014,165.60791-34.88281,51.6333-74.94385,100.18799-119.0708,144.3147-44.12695,44.12695-92.68164,84.18823-144.31494,119.07104-52.12207,35.21313-107.84033,65.4563-165.60791,89.88989-58.82959,24.88281-120.39453,43.99365-182.9834,56.80103-64.23438,13.14429-130.354,19.80908-196.52295,19.80908s-132.28857-6.66479-196.52295-19.80908c-62.58887-12.80737-124.15381-31.91821-182.9834-56.80103-57.76758-24.43359-113.48584-54.67676-165.60791-89.88989-51.6333-34.88281-100.18799-74.94409-144.31494-119.07104-44.12695-44.12671-84.18799-92.6814-119.0708-144.3147-35.21289-52.12207-65.45605-107.84058-89.89014-165.60791-24.88281-58.82983-43.99316-120.39453-56.80078-182.98315-13.14453-64.23438-19.80908-130.35449-19.80908-196.52319s6.66455-132.28882,19.80908-196.52319c12.80762-62.58862,31.91797-124.15332,56.80078-182.98315,24.43408-57.76733,54.67725-113.48584,89.89014-165.60803,34.88281-51.63318,74.94385-100.18787,119.0708-144.3147s92.68164-84.18811,144.31494-119.07092c52.12207-35.21313,107.84033-65.4563,165.60791-89.89001,58.82959-24.88281,120.39453-43.99341,182.9834-56.8009,64.23438-13.14441,130.354-19.80908,196.52295-19.80908M1500,1500c-552.28467,0-1000,447.71533-1000,1000s447.71533,1000,1000,1000,1000-447.71533,1000-1000-447.71533-1000-1000-1000h0Z"/><line class="g" x1="1500" y1="1512.5" x2="1500" y2="1650"/><line class="g" x1="1244.41619" y1="1546.14825" x2="1280.00381" y2="1678.96305"/><line class="g" x1="1006.25" y1="1644.79991" x2="1075" y2="1763.87841"/><line class="g" x1="801.73205" y1="1801.73205" x2="898.95924" y2="1898.95924"/><line class="g" x1="644.79991" y1="2006.25" x2="763.87841" y2="2075"/><line class="g" x1="2236.12159" y1="2925" x2="2355.20009" y2="2993.75"/><line class="g" x1="546.14825" y1="2244.41619" x2="678.96305" y2="2280.00381"/><line class="g" x1="2321.03695" y1="2719.99619" x2="2453.85175" y2="2755.58381"/><path class="e" d="M2366.15991,1999.91992c-41.78979-72.24927-92.37988-138.76318-150.28174-198.12036l-105.91406,105.91406c46.43335,47.77661,86.53662,100.35864,119.94946,156.43726l-.0415.02393,12.5,21.65039,119.07812-68.75,4.70972-17.15527Z"/><circle class="f" cx="1500" cy="2500" r="2500"/><path class="e" d="M1914.2254,1757.54047l74.90153-129.73325c-72.32073-40.56613-149.66192-72.21733-230.26541-93.88393l-15.35169,8.98958-35.58771,132.81445,12.07502,3.23549-.00056.00167c69.29071,18.56858,134.28401,45.19437,194.22883,78.57599Z"/><path class="e" d="M2010.85568,1640.17171l-75.07967,130.04171c57.82411,34.50891,110.10151,74.8549,156.49763,119.83507l105.92668-105.92672c-56.39324-55.01077-119.25049-103.4153-187.34465-143.95006Z"/></g><circle class="f" cx="1500" cy="2500" r="2500"/><circle class="f" cx="1500" cy="2500" r="2500"/><g class="i"><polygon class="d" points="1989.90259 1349.93405 1966.8056 1340.36696 1476.90301 2490.43292 1523.09699 2509.56708 1989.90259 1349.93405"/></g><polygon class="e" points="2031.45404 988.30796 1935.78315 1219.27782 1843.3952 1181.00946 2031.45404 988.30796"/><polygon class="e" points="2193.13301 1055.27759 2097.46211 1286.24745 2189.85006 1324.51581 2193.13301 1055.27759"/><path class="e" d="M2364.25003,413.51585c-70.31319,54.38818-166.24859,205.37516-244.71082,394.79973h0l-172.20754,415.74579,138.58193,57.40251,172.20754-415.74579h0c78.46223-189.42457,117.38957-364.02506,106.12889-452.20224Z"/><path class="e" d="M1972.96127,1248.2074c-12.05795,15.78837-22.74709,34.22314-31.23387,54.71202l92.38795,38.26834c8.48677-20.48888,13.96376-41.0826,16.60156-60.77292l-77.75565-32.20744Z"/><path class="d" d="M1500,2450c27.57031,0,50,22.42993,50,50s-22.42969,50-50,50-50-22.42993-50-50,22.42969-50,50-50M1500,2425c-41.42139,0-75,33.57861-75,75s33.57861,75,75,75,75-33.57861,75-75-33.57861-75-75-75h0Z"/></svg>